<svg xmlns="http://www.w3.org/2000/svg" version="1.1" xmlns:xlink="http://www.w3.org/1999/xlink" xmlns:svgjs="http://svgjs.dev/svgjs" width="1440" height="560" preserveAspectRatio="none" viewBox="0 0 1440 560">
    <g mask="url(&quot;#SvgjsMask1245&quot;)" fill="none">
        <rect width="1440" height="560" x="0" y="0" fill="rgba(30, 32, 53, 1)"></rect>
        <use xlink:href="#SvgjsG1251" transform="translate(0, 0)" fill="rgba(62, 208, 172, 1)"></use>
    </g>
    <defs>
        <mask id="SvgjsMask1245">
            <rect width="1440" height="560" fill="#ffffff"></rect>
        </mask>
        <g id="SvgjsG1246">
            <path d="M6.498 9.304L12.139 3.663l1.565 1.566-5.641 5.641z"></path>
            <path d="M6.8 0.457h2.541v8.028H6.8z"></path>
            <path d="M8.072 10.876L2.429 5.238l1.563-1.566L9.636 9.313zM1.2 13.277h13.733v2.266H1.2z"></path>
            <path d="M0.733 9.143h2.267v6.4h-2.267z m12.267 0h2.267v6.4h-2.267z"></path>
        </g>
        <g id="SvgjsG1247">
            <path d="M15.233 9.431c0.295 0 0.569-0.239 0.61-0.532 0 0 0.056-0.411 0.056-0.899s-0.056-0.899-0.056-0.899c-0.041-0.292-0.315-0.531-0.61-0.53h-1.524c-0.295 0-0.602-0.188-0.681-0.418s-0.188-0.967 0.021-1.176l1.078-1.077c0.209-0.209 0.225-0.565 0.036-0.792l-1.268-1.268c-0.227-0.189-0.583-0.173-0.792 0.036l-1.078 1.077c-0.208 0.209-0.556 0.293-0.772 0.187s-0.822-0.552-0.821-0.847V0.767c0-0.295-0.239-0.569-0.531-0.61 0 0-0.411-0.057-0.9-0.056s-0.899 0.057-0.899 0.056c-0.293 0.04-0.532 0.315-0.532 0.61v1.524c0 0.295-0.188 0.601-0.418 0.681s-0.967 0.188-1.176-0.021l-1.078-1.078C3.689 1.665 3.333 1.649 3.107 1.837l-1.268 1.268c-0.189 0.227-0.173 0.583 0.036 0.792l1.077 1.078c0.209 0.209 0.293 0.556 0.187 0.772s-0.552 0.822-0.847 0.822H0.767c-0.295 0-0.569 0.239-0.61 0.531 0 0-0.057 0.411-0.056 0.899s0.057 0.899 0.056 0.9c0.04 0.293 0.315 0.532 0.61 0.532h1.525c0.295 0 0.601 0.188 0.681 0.417 0.079 0.23 0.188 0.967-0.02 1.176l-1.078 1.077C1.667 12.311 1.651 12.667 1.84 12.893l1.267 1.268c0.227 0.189 0.583 0.173 0.792-0.036l1.077-1.077c0.209-0.208 0.556-0.292 0.772-0.187s0.821 0.553 0.822 0.848v1.524c0 0.295 0.239 0.569 0.532 0.61 0 0 0.411 0.057 0.899 0.057s0.899-0.056 0.899-0.057c0.293-0.04 0.531-0.315 0.532-0.609v-1.524c0-0.295 0.188-0.602 0.418-0.681 0.23-0.079 0.967-0.188 1.176 0.021l1.077 1.077c0.209 0.209 0.565 0.225 0.792 0.036l1.268-1.267c0.189-0.227 0.173-0.583-0.036-0.792l-1.078-1.077c-0.209-0.209-0.293-0.557-0.186-0.773 0.106-0.216 0.552-0.822 0.847-0.822h1.525zM8 10.892c-1.597 0-2.891-1.294-2.891-2.892 0-1.596 1.295-2.891 2.891-2.891S10.892 6.404 10.892 8 9.597 10.892 8 10.892z"></path>
        </g>
        <g id="SvgjsG1248">
            <path d="M0 10.392a3.585 3.585 0 1 0 7.169 0 3.585 3.585 0 1 0-7.169 0"></path>
            <path d="M7.997 9.975a4.001 4.001 0 1 0 8.003 0 4.001 4.001 0 1 0-8.003 0"></path>
            <path d="M2.655 7.156a5.054 5.054 0 1 0 10.108 0 5.054 5.054 0 1 0-10.108 0"></path>
            <path d="M3.585 7.983H12.5v5.993H3.585z"></path>
        </g>
        <g id="SvgjsG1249">
            <path d="M11.675 13.031H3.563V2.436h8.112v10.595z m-4.054 1.54a0.457 0.457 0 1 1 0-0.912 0.457 0.457 0 0 1 0 0.912zM6.921 1.287h1.395c0.196 0 0.196 0.356 0 0.356h-1.397c-0.199 0-0.199-0.356 0-0.356zM11.495 0.409H3.744C3.413 0.409 3.143 0.761 3.143 1.191V14.276c0 0.427 0.267 0.779 0.601 0.778h7.751c0.332 0 0.604-0.35 0.605-0.778V1.191c0-0.432-0.272-0.782-0.605-0.782z" fill-rule="evenodd"></path>
        </g>
        <g id="SvgjsG1250">
            <path d="M5.534 5.272L8.008 0l2.474 5.272 5.534 0.845-4.004 4.103 0.945 5.795L8.008 13.279 3.06 16.015l0.945-5.795L0.001 6.117z"></path>
        </g>
        <g id="SvgjsG1251">
            <use xlink:href="#SvgjsG1246" transform="translate(0, 0) scale(3)" fill="rgba(62, 208, 172, 1)"></use>
            <use xlink:href="#SvgjsG1247" transform="translate(0, 192) scale(3)" fill="rgba(62, 208, 172, 1)"></use>
            <use xlink:href="#SvgjsG1248" transform="translate(0, 384) scale(3)" fill="rgba(62, 208, 172, 1)"></use>
            <use xlink:href="#SvgjsG1247" transform="translate(192, 0) scale(3)" fill="rgba(62, 208, 172, 1)"></use>
            <use xlink:href="#SvgjsG1248" transform="translate(192, 192) scale(3)" fill="rgba(62, 208, 172, 1)"></use>
            <use xlink:href="#SvgjsG1249" transform="translate(192, 384) scale(3)" fill="rgba(62, 208, 172, 1)"></use>
            <use xlink:href="#SvgjsG1248" transform="translate(384, 0) scale(3)" fill="rgba(62, 208, 172, 1)"></use>
            <use xlink:href="#SvgjsG1249" transform="translate(384, 192) scale(3)" fill="rgba(62, 208, 172, 1)"></use>
            <use xlink:href="#SvgjsG1250" transform="translate(384, 384) scale(3)" fill="rgba(62, 208, 172, 1)"></use>
            <use xlink:href="#SvgjsG1249" transform="translate(576, 0) scale(3)" fill="rgba(62, 208, 172, 1)"></use>
            <use xlink:href="#SvgjsG1250" transform="translate(576, 192) scale(3)" fill="rgba(62, 208, 172, 1)"></use>
            <use xlink:href="#SvgjsG1246" transform="translate(576, 384) scale(3)" fill="rgba(62, 208, 172, 1)"></use>
            <use xlink:href="#SvgjsG1250" transform="translate(768, 0) scale(3)" fill="rgba(62, 208, 172, 1)"></use>
            <use xlink:href="#SvgjsG1246" transform="translate(768, 192) scale(3)" fill="rgba(62, 208, 172, 1)"></use>
            <use xlink:href="#SvgjsG1247" transform="translate(768, 384) scale(3)" fill="rgba(62, 208, 172, 1)"></use>
            <use xlink:href="#SvgjsG1246" transform="translate(960, 0) scale(3)" fill="rgba(62, 208, 172, 1)"></use>
            <use xlink:href="#SvgjsG1247" transform="translate(960, 192) scale(3)" fill="rgba(62, 208, 172, 1)"></use>
            <use xlink:href="#SvgjsG1248" transform="translate(960, 384) scale(3)" fill="rgba(62, 208, 172, 1)"></use>
            <use xlink:href="#SvgjsG1247" transform="translate(1152, 0) scale(3)" fill="rgba(62, 208, 172, 1)"></use>
            <use xlink:href="#SvgjsG1248" transform="translate(1152, 192) scale(3)" fill="rgba(62, 208, 172, 1)"></use>
            <use xlink:href="#SvgjsG1249" transform="translate(1152, 384) scale(3)" fill="rgba(62, 208, 172, 1)"></use>
            <use xlink:href="#SvgjsG1248" transform="translate(1344, 0) scale(3)" fill="rgba(62, 208, 172, 1)"></use>
            <use xlink:href="#SvgjsG1249" transform="translate(1344, 192) scale(3)" fill="rgba(62, 208, 172, 1)"></use>
            <use xlink:href="#SvgjsG1250" transform="translate(1344, 384) scale(3)" fill="rgba(62, 208, 172, 1)"></use>
        </g>
    </defs>
</svg>